<svg xmlns="http://www.w3.org/2000/svg" viewBox="0 0 1200 1400" role="img">
  <rect width="1200" height="1400" fill="#d8ddcf"/>
  <path d="M0 210C268 74 457 98 660 257s328 184 540 60v1083H0Z" fill="#f2eee4"/>
  <ellipse cx="816" cy="744" rx="278" ry="394" fill="#283f36"/>
  <ellipse cx="816" cy="744" rx="188" ry="282" fill="#c6a878"/>
  <ellipse cx="816" cy="744" rx="112" ry="184" fill="#f5f0e5"/>
  <path d="M174 1124c180-212 349-300 506-264-110 90-171 208-183 354-120 17-228-13-323-90Z" fill="#9fae95"/>
  <path d="M172 1124c186-100 320-167 401-301" fill="none" stroke="#283f36" stroke-width="8"/>
  <circle cx="214" cy="222" r="82" fill="none" stroke="#283f36" stroke-width="4"/>
  <circle cx="214" cy="222" r="48" fill="none" stroke="#283f36" stroke-width="2"/>
</svg>
